<?xml version="1.0" standalone="no"?>
<!DOCTYPE svg PUBLIC "-//W3C//DTD SVG 20010904//EN"
 "http://www.w3.org/TR/2001/REC-SVG-20010904/DTD/svg10.dtd">
<svg version="1.0" xmlns="http://www.w3.org/2000/svg"
 width="4168.000000pt" height="4167.000000pt" viewBox="0 0 4168.000000 4167.000000"
 preserveAspectRatio="xMidYMid meet">

<g transform="translate(0.000000,4167.000000) scale(0.100000,-0.100000)"
fill="#000000" stroke="none">
<path d="M9150 26633 c0 -6065 4 -9530 10 -9713 26 -727 107 -1401 251 -2074
974 -4550 4581 -8105 9144 -9011 528 -105 1001 -166 1605 -207 244 -16 1106
-16 1355 0 1687 112 3193 521 4630 1256 1971 1008 3625 2562 4748 4456 215
363 476 870 634 1230 503 1144 812 2313 938 3550 53 528 49 -285 52 10253 l3
9687 -11685 0 -11685 0 0 -9427z m12983 7167 c-37 -43 -284 -331 -548 -639
l-480 -560 -498 0 c-405 -1 -498 1 -495 12 2 7 183 295 403 640 l400 626 643
0 643 1 -68 -80z m-1092 -2050 c1027 -79 1783 -462 2366 -1201 79 -100 250
-358 322 -486 78 -138 211 -418 281 -592 474 -1181 700 -2818 700 -5086 0
-3066 -414 -5013 -1312 -6173 -108 -139 -415 -446 -546 -546 -429 -325 -926
-527 -1502 -610 -195 -28 -304 -37 -555 -43 -542 -13 -998 50 -1429 197 -913
311 -1579 1003 -2018 2099 -470 1172 -698 2826 -698 5076 0 2840 362 4740
1127 5914 560 859 1384 1347 2433 1440 69 6 141 13 160 15 87 8 549 5 671 -4z
m1769 -15275 c1276 -148 1941 -935 2150 -2545 83 -646 91 -1506 19 -2155 -105
-951 -390 -1615 -862 -2012 -380 -319 -860 -479 -1524 -509 l-153 -7 0 1135 0
1135 123 7 c640 34 972 308 1072 886 38 218 38 602 0 834 -64 396 -218 636
-488 761 -132 61 -312 95 -500 95 -356 0 -607 -192 -787 -600 -110 -250 -179
-515 -334 -1286 -152 -751 -207 -978 -319 -1309 -339 -999 -905 -1506 -1797
-1606 -134 -15 -489 -15 -645 0 -851 83 -1400 442 -1740 1136 -275 564 -405
1321 -405 2370 0 1918 465 2928 1503 3270 137 45 314 85 462 104 84 11 350 31
421 31 l41 0 478 -992 c263 -546 483 -1003 490 -1016 10 -20 18 1 65 175 155
576 336 990 575 1314 98 132 321 354 445 441 285 201 642 324 1044 358 139 12
503 3 666 -15z"/>
<path d="M20530 29480 c-472 -48 -873 -334 -1187 -848 -554 -902 -854 -2511
-830 -4447 7 -562 27 -923 78 -1410 149 -1421 481 -2511 961 -3155 97 -129
292 -321 406 -398 453 -309 990 -309 1453 0 123 81 349 306 457 452 440 597
765 1559 942 2786 167 1159 179 2390 34 3500 -167 1282 -513 2288 -994 2889
-95 119 -280 297 -387 374 -273 195 -615 289 -933 257z"/>
<path d="M19850 13873 c-122 -7 -430 -45 -559 -69 -287 -53 -511 -121 -706
-213 -206 -98 -337 -194 -438 -321 -145 -182 -183 -349 -158 -694 30 -412 109
-644 276 -812 122 -124 254 -182 462 -205 361 -39 594 109 778 493 118 247
201 555 349 1299 52 261 98 488 101 502 7 25 5 27 -21 25 -16 -1 -54 -3 -84
-5z"/>
</g>
</svg>
